<svg fill="currentColor" preserveAspectRatio="xMidYMid meet" width="20" height="20" viewBox="0 0 1024 1024" data-spm-anchor-id="0.0.0.i0.594f4b2cz2O9ed"><path d="M128 96h512a64 64 0 0 1 64 64v64a64 64 0 0 1-64 64H128a64 64 0 0 1-64-64V160a64 64 0 0 1 64-64z m32 64a32 32 0 1 0 0 64h448a32 32 0 0 0 0-64H160z m224 576h512a64 64 0 0 1 64 64v64a64 64 0 0 1-64 64H384a64 64 0 0 1-64-64v-64a64 64 0 0 1 64-64z m32 64a32 32 0 0 0 0 64h448a32 32 0 0 0 0-64H416z m-32-384h512a64 64 0 0 1 64 64v64a64 64 0 0 1-64 64H384a64 64 0 0 1-64-64v-64a64 64 0 0 1 64-64z m32 64a32 32 0 0 0 0 64h448a32 32 0 0 0 0-64H416z"></path></svg>